<?xml version="1.0" encoding="utf-8"?>
<!-- Generator: Adobe Illustrator 16.0.0, SVG Export Plug-In . SVG Version: 6.00 Build 0)  -->
<!DOCTYPE svg PUBLIC "-//W3C//DTD SVG 1.1//EN" "http://www.w3.org/Graphics/SVG/1.1/DTD/svg11.dtd">
<svg version="1.1" id="Layer_1" xmlns="http://www.w3.org/2000/svg" xmlns:xlink="http://www.w3.org/1999/xlink" x="0px" y="0px"
	 width="110px" height="110px" viewBox="0 0 110 110" enable-background="new 0 0 110 110" xml:space="preserve">
<g>
	<g>
		<path fill="#FFFFFF" d="M74.116,58.763c-0.29-0.028-0.577,0.003-0.853,0.089c-0.668,0.212-1.399,0.072-1.944-0.372
			c-0.487-0.397-0.764-0.991-0.764-1.611c0-0.073,0.004-0.146,0.012-0.218c0,0,0.273-2.611,0.31-2.957
			c-0.026-0.729-1.517-2.261-3.771-2.261H42.2c-2.252,0-3.745,1.531-3.77,2.261c0.041,0.387,2.476,23.609,2.476,23.609
			c0.009,0.072,0.011,0.146,0.011,0.219c0,0.729,1.508,1.832,3.78,1.832h19.912c2.272,0,3.78-1.104,3.78-1.832
			c0-0.073,0.005-0.146,0.011-0.219l0.738-7.026c0.073-0.704,0.499-1.321,1.13-1.64c0.631-0.32,1.382-0.297,1.991,0.06
			c0.282,0.165,0.577,0.265,0.874,0.294c0.574,0.054,1.134-0.117,1.578-0.484c0.446-0.367,0.721-0.885,0.777-1.457l0.57-5.932
			c0.057-0.574-0.115-1.134-0.482-1.578C75.209,59.094,74.692,58.818,74.116,58.763z M106.505,55.496
			c0-1.65-1.991-3.197-2.156-4.813c-0.149-1.64,1.51-3.543,1.194-5.134c-0.331-1.623-2.587-2.748-3.054-4.305
			c-0.48-1.573,0.781-3.764,0.149-5.27c-0.63-1.521-3.068-2.183-3.832-3.619c-0.781-1.448,0.034-3.841-0.896-5.195
			c-0.896-1.37-3.419-1.539-4.464-2.8c-1.045-1.267-0.712-3.77-1.874-4.93c-1.162-1.159-3.652-0.836-4.929-1.877
			c-1.261-1.041-1.443-3.56-2.803-4.465c-1.363-0.915-3.751-0.111-5.195-0.888c-1.443-0.77-2.106-3.206-3.618-3.841
			c-1.509-0.625-3.698,0.635-5.258,0.152c-1.56-0.464-2.689-2.731-4.315-3.052c-1.593-0.314-3.483,1.353-5.144,1.192
			c-1.609-0.161-3.151-2.156-4.812-2.156c-1.658,0-3.186,1.995-4.81,2.156c-1.643,0.161-3.551-1.506-5.145-1.192
			c-1.609,0.321-2.721,2.588-4.281,3.052c-1.592,0.483-3.783-0.777-5.277-0.152c-1.525,0.635-2.188,3.071-3.616,3.841
			c-1.46,0.777-3.849-0.026-5.209,0.879c-1.363,0.914-1.528,3.433-2.788,4.474c-1.261,1.042-3.784,0.719-4.928,1.877
			c-1.162,1.16-0.847,3.663-1.876,4.93c-1.044,1.262-3.549,1.431-4.478,2.792c-0.897,1.362-0.101,3.755-0.881,5.203
			c-0.78,1.436-3.202,2.097-3.833,3.619c-0.631,1.505,0.631,3.697,0.149,5.27c-0.48,1.557-2.737,2.682-3.053,4.297
			c-0.314,1.598,1.344,3.501,1.178,5.142c-0.149,1.616-2.156,3.163-2.156,4.813c0,1.659,2.007,3.205,2.156,4.813
			c0.166,1.648-1.493,3.553-1.178,5.143c0.316,1.615,2.573,2.739,3.053,4.297c0.481,1.581-0.78,3.771-0.149,5.277
			c0.631,1.514,3.053,2.174,3.833,3.611c0.78,1.445-0.017,3.84,0.881,5.201c0.913,1.362,3.434,1.531,4.478,2.801
			c1.03,1.26,0.715,3.762,1.858,4.922c1.163,1.16,3.685,0.836,4.946,1.877c1.26,1.042,1.425,3.561,2.788,4.476
			c1.36,0.905,3.749,0.109,5.209,0.878c1.428,0.77,2.091,3.215,3.616,3.842c1.494,0.624,3.685-0.636,5.277-0.153
			c1.561,0.474,2.672,2.731,4.281,3.053c1.593,0.314,3.502-1.345,5.145-1.185c1.625,0.162,3.152,2.157,4.81,2.157
			c1.661,0,3.203-1.995,4.812-2.157c1.66-0.16,3.551,1.499,5.144,1.185c1.626-0.321,2.756-2.579,4.315-3.053
			s3.749,0.777,5.258,0.153c1.512-0.627,2.175-3.072,3.618-3.842c1.444-0.769,3.832,0.035,5.195-0.878
			c1.359-0.915,1.542-3.434,2.803-4.466c1.276-1.041,3.767-0.727,4.929-1.879c1.162-1.159,0.829-3.662,1.874-4.93
			c1.045-1.27,3.567-1.438,4.464-2.801c0.93-1.361,0.114-3.747,0.896-5.201c0.764-1.438,3.202-2.098,3.832-3.611
			c0.632-1.506-0.63-3.696-0.149-5.277c0.467-1.558,2.723-2.682,3.054-4.297c0.315-1.59-1.344-3.494-1.194-5.143
			C104.514,58.7,106.505,57.154,106.505,55.496z M42.943,41.784c0.263-1.562,1.866-4.079,7.224-7.908
			c4.47-3.193,6.837-5.093,7.222-7c0.385-1.909-1.214-3.827-4.669-7.06c-2.797-2.615,1.763-1.036,5.45,2.348
			c3.688,3.384,6.503,8.572,0.212,13.171c-3.8,2.777-1.69,4.931,1.367,6.389c3.059,1.458,7.065,2.224,7.065,2.224L43.753,43.95
			C43.753,43.95,42.678,43.345,42.943,41.784z M80.769,61.014l-0.588,6.098c-0.166,1.727-0.996,3.287-2.335,4.391
			c-1.264,1.041-2.838,1.553-4.46,1.469c-0.226,2.139-0.497,4.722-0.497,4.722c0.009-0.073,0.013-0.149,0.013-0.224
			c0,3.456-3.588,6.164-8.167,6.164H44.259c-4.579,0-8.167-2.708-8.167-6.164c0,0.074,0.004,0.15,0.012,0.224l-2.568-24.48
			c-0.008-0.074-0.012-0.149-0.012-0.224c0-3.457,3.587-6.164,8.166-6.164h25.612c4.578,0,8.166,2.707,8.166,6.164
			c0,0.075-0.005,0.15-0.013,0.224c0,0-0.052,0.501-0.083,0.796c1.545,0.259,2.936,1.027,3.942,2.248
			c0.968,1.174,1.482,2.616,1.482,4.12C80.798,60.588,80.788,60.801,80.769,61.014z"/>
	</g>
</g>
</svg>
